<?xml version="1.0" encoding="UTF-8" standalone="no"?> <!-- Created with Vectornator for iOS (http://vectornator.io/) --><!DOCTYPE svg PUBLIC "-//W3C//DTD SVG 1.1//EN" "http://www.w3.org/Graphics/SVG/1.1/DTD/svg11.dtd">
<svg height="100%" style="fill-rule:evenodd;clip-rule:evenodd;stroke-linecap:round;stroke-linejoin:round;" xmlns:xlink="http://www.w3.org/1999/xlink" xmlns="http://www.w3.org/2000/svg" xml:space="preserve" width="100%" xmlns:vectornator="http://vectornator.io" version="1.1" viewBox="0 0 841.995 595.35">
<metadata>
<vectornator:setting key="DimensionsVisible" value="1"/>
<vectornator:setting key="SnapToGrid" value="0"/>
<vectornator:setting key="SnapToPoints" value="0"/>
<vectornator:setting key="GuidesVisible" value="1"/>
<vectornator:setting key="RulersVisible" value="1"/>
<vectornator:setting key="CMYKEnabledKey" value="0"/>
<vectornator:setting key="SnapToEdges" value="0"/>
<vectornator:setting key="DisplayWhiteBackground" value="1"/>
<vectornator:setting key="SnapToGuides" value="1"/>
<vectornator:setting key="GridSpacing" value="36"/>
<vectornator:setting key="Units" value="Millimeters"/>
<vectornator:setting key="DynamicGuides" value="1"/>
<vectornator:setting key="New" value="1"/>
</metadata>
<defs/>
<g id="Layer 1" vectornator:layerName="Layer 1">
<path d="M103.123+294.131C103.123+132.04+234.579+0.639609+396.737+0.639609C558.896+0.639609+690.351+132.04+690.351+294.131C690.351+456.222+558.896+587.623+396.737+587.623C234.579+587.623+103.123+456.222+103.123+294.131Z" opacity="1" fill="#003049"/>
<path d="M557.759+367.752L557.759+365.93L556.645+366.128C555.401+366.365+554.243+365.533+554.157+364.385L553.9+361.81L552.657+361.335C552.228+361.176+552.056+360.701+552.313+360.305L553.9+357.849C554.157+354.838+556.001+351.907+560.761+351.907C565.65+351.907+568.051+355.235+568.051+358.641C568.051+360.107+567.494+361.374+566.636+362.444C565.864+363.434+565.478+364.622+565.478+365.811L565.478+367.752L557.759+367.752Z" opacity="1" fill="#ffb74d"/>
<path d="M538.795+381.65L538.795+381.65L548.668+382.523L554.316+376.055C555.41+374.845+555.271+373.091+554.085+371.97C552.899+370.849+551.183+370.988+550.089+372.197L546.323+376.509L539.271+375.885C537.72+375.748+536.343+376.933+536.212+378.518C536.081+380.103+537.244+381.512+538.795+381.65Z" opacity="1" fill="#2196f3"/>
<path d="M562.526+366.832C569.284+366.832+573.277+371.239+573.277+376.626C573.277+376.626+573.277+377.116+573.277+377.85C573.277+379.564+573.277+382.625+573.277+385.196L573.277+386.42C573.277+387.766+571.895+388.868+570.205+388.868C569.744+388.868+569.284+388.746+568.823+388.623L567.133+406.008L556.383+406.008L553.311+376.626L545.632+376.626C553.311+366.832+554.847+366.832+562.526+366.832Z" opacity="1" fill="#2196f3"/>
<path d="M255.432+353.558L249.266+353.558C248.65+353.558+248.239+353.119+248.239+352.46C248.239+351.802+248.65+351.363+249.266+351.363L255.432+351.363C256.048+351.363+256.459+351.802+256.459+352.46C256.459+353.119+256.048+353.558+255.432+353.558Z" opacity="1" fill="#795548"/>
<path d="M269.16+365.135C266.899+365.135+265.05+363.16+265.05+360.745C265.05+358.331+266.899+356.355+269.16+356.355C271.42+356.355+273.27+358.331+273.27+360.745C273.27+363.16+271.42+365.135+269.16+365.135" opacity="1" fill="#ffb74d"/>
<g opacity="1">
<path d="M271.318+370.403L281.491+385.988" opacity="1" fill="#ff9800"/>
<path d="M281.491+388.183C280.874+388.183+280.155+387.854+279.846+387.195L269.674+371.611C269.057+370.623+269.263+369.196+270.187+368.538C271.112+367.879+272.448+368.099+273.064+369.086L283.237+384.671C283.854+385.659+283.648+387.086+282.724+387.744C282.313+388.073+281.902+388.183+281.491+388.183Z" opacity="1" fill="#4caf50"/>
</g>
<path d="M262.994+370.623C262.481+370.623+262.378+372.159+261.967+371.72L254.979+362.94L252.822+353.612C252.513+352.404+253.233+351.197+254.363+350.978C255.493+350.648+256.623+351.417+256.829+352.624L258.781+360.855L264.433+366.891C265.255+367.769+265.358+369.306+264.536+370.184C264.022+370.403+263.508+370.623+262.994+370.623Z" opacity="1" fill="#4caf50"/>
<path d="M269.674+385.988L272.242+370.842C272.448+369.306+272.242+368.208+271.831+368.208L263.714+366.452C262.275+366.233+262.378+367.44+262.172+368.977L259.192+385.988L269.674+385.988Z" opacity="1" fill="#4caf50"/>
<path d="M256.829+383.793L283.546+383.793L283.546+388.183L256.829+388.183L256.829+383.793Z" opacity="1" fill="#455a64"/>
<path d="M160.25+442.166L348.196+442.166L348.196+453.823L160.25+453.823L160.25+442.166Z" opacity="1" fill="#ffc107"/>
<path d="M336.45+337.251L348.196+337.251L348.196+453.823L336.45+453.823L336.45+337.251Z" opacity="1" fill="#ffc107"/>
<path d="M160.25+325.594L171.997+325.594L171.997+453.823L160.25+453.823L160.25+325.594Z" opacity="1" fill="#ffc107"/>
<path d="M160.25+382.354L348.196+382.354L348.196+394.012L160.25+394.012L160.25+382.354Z" opacity="1" fill="#ffc107"/>
<path d="M213.11+302.279L224.857+302.279L224.857+447.994L213.11+447.994L213.11+302.279Z" opacity="1" fill="#ffc107"/>
<path d="M283.59+302.279L295.336+302.279L295.336+447.994L283.59+447.994L283.59+302.279Z" opacity="1" fill="#ffc107"/>
<path d="M216.894+325.685L299.12+325.685L299.12+337.342L216.894+337.342L216.894+325.685Z" opacity="1" fill="#ffc107"/>
<path d="M618.376+367.85L271.518+121.29L271.518+121.29L269.027+126.381L269.027+126.381L615.885+372.94L615.885+372.94L618.376+367.85L618.376+367.85Z" opacity="1" fill="#525357"/>
<path d="M248.285+122.391C251.025+118.602+254.748+116.435+258.98+116.072C263.212+115.71+267.361+117.345+270.533+120.485L502.159+349.724C505.464+352.995+507.397+357.379+507.793+362.321C508.188+367.263+506.867+372.067+504.236+375.705C501.495+379.494+497.773+381.661+493.541+382.023C489.308+382.385+485.16+380.75+481.987+377.61L250.362+148.371C247.056+145.1+245.123+140.716+244.728+135.774C244.333+130.832+245.544+126.18+248.285+122.391ZM253.541+143.976L485.166+373.215C487.414+375.439+490.176+376.482+493.078+376.234C495.98+375.985+498.538+374.487+500.402+371.91C502.266+369.334+503.106+366.134+502.835+362.745C502.564+359.357+501.227+356.344+498.98+354.119L267.354+124.88C265.107+122.656+262.345+121.613+259.443+121.862C256.541+122.11+253.982+123.609+252.118+126.185C250.255+128.762+249.415+131.961+249.686+135.35C249.957+138.739+251.293+141.752+253.541+143.976Z" opacity="1" fill="#eaa803"/>
<path d="M253.463+149.101L253.884+145.226L274.869+148.832L268.355+125.221L271.552+124.094L278.576+149.509L299.803+153.094L300.627+152.739L300.781+153.152L301.155+153.262L300.993+154.271L307.529+178.164L329.504+181.969L329.856+181.797L329.878+182.079L330.12+182.058L330.033+182.492L336.879+207.211L358.854+211.016L359.205+210.844L359.228+211.126L359.47+211.106L359.383+211.54L366.229+236.259L388.325+240.053L388.566+240.033L388.578+240.174L388.699+240.163L388.721+240.446L395.579+265.306L416.805+268.891L417.629+268.536L417.784+268.949L418.158+269.059L417.995+270.068L424.532+293.961L446.507+297.766L446.858+297.594L446.881+297.876L447.123+297.855L447.036+298.289L453.882+323.008L475.857+326.813L476.208+326.641L476.231+326.923L476.472+326.903L476.385+327.337L483.231+352.056L505.822+355.95L505.402+359.825L484.416+356.219L490.93+379.83L487.733+380.956L480.71+355.542L458.735+351.737L458.383+351.909L458.361+351.627L458.119+351.647L458.206+351.213L451.36+326.494L429.385+322.689L429.034+322.862L429.011+322.579L428.769+322.6L428.856+322.166L422.01+297.447L400.783+293.862L399.959+294.217L399.805+293.804L399.431+293.694L399.593+292.685L393.057+268.792L370.961+264.998L370.719+265.018L370.708+264.877L370.587+264.887L370.565+264.605L363.707+239.745L341.732+235.94L341.381+236.112L341.358+235.83L341.116+235.85L341.203+235.416L334.357+210.697L312.382+206.892L312.031+207.065L312.008+206.782L311.767+206.803L311.854+206.369L305.008+181.65L283.781+178.065L282.957+178.42L282.802+178.007L282.428+177.897L282.591+176.888L276.054+152.995L253.463+149.101ZM461.026+348.413L479.789+351.64L473.962+330.53L455.199+327.303L461.026+348.413ZM431.676+319.366L450.439+322.592L444.612+301.482L425.849+298.255L431.676+319.366ZM402.568+290.298L421.09+293.545L415.285+272.717L396.764+269.47L402.568+290.298ZM373.241+261.533L392.004+264.759L386.177+243.649L367.414+240.422L373.241+261.533ZM343.891+232.485L362.654+235.712L356.827+214.602L338.064+211.375L343.891+232.485ZM314.541+203.438L333.305+206.665L327.478+185.554L308.714+182.328L314.541+203.438ZM285.433+174.37L303.955+177.617L298.15+156.789L279.629+153.542L285.433+174.37Z" opacity="1" fill="#eaa803"/>
<path d="M271.899+135.549C271.309+142.927+265.709+148.47+259.391+147.929C253.072+147.388+248.429+140.968+249.018+133.59C249.608+126.212+255.208+120.669+261.527+121.21C267.845+121.751+272.489+128.171+271.899+135.549Z" opacity="1" fill="#525357"/>
<path d="M262.911+128.125L258.007+128.125L258.007+128.125L258.007+210.581L258.007+210.581L262.911+210.581L262.911+210.581L262.911+128.125L262.911+128.125Z" opacity="1" fill="#525357"/>
<path d="M542.551+420.301L580.917+420.301C581.371+420.301+581.674+420.693+581.674+421.085L581.674+427.194C581.674+427.664+581.296+427.977+580.917+427.977L542.551+427.977C542.097+427.977+541.794+427.585+541.794+427.194L541.794+421.085C541.794+420.615+542.097+420.301+542.551+420.301Z" opacity="1" fill="#a3a19d"/>
<path d="M535.967+426.019L587.501+426.019C587.955+426.019+588.258+426.41+588.258+426.802L588.258+432.911C588.258+433.381+587.879+433.694+587.501+433.694L535.967+433.694C535.513+433.694+535.21+433.303+535.21+432.911L535.21+426.802C535.21+426.332+535.589+426.019+535.967+426.019Z" opacity="1" fill="#bdbdbd"/>
<g opacity="1">
<path d="M473.99+431.815L618.981+431.815C626.17+431.815+632.073+437.845+632.073+445.364L632.073+452.022C632.073+459.462+626.246+465.571+618.981+465.571L473.99+465.571C466.801+465.571+460.899+459.541+460.899+452.022L460.899+445.364C460.899+437.845+466.726+431.815+473.99+431.815Z" opacity="1" fill="#a3a19d"/>
<path d="M475.58+435.183L616.938+435.183C622.689+435.183+627.381+440.038+627.381+445.991L627.381+451.317C627.381+457.269+622.689+462.125+616.938+462.125L475.655+462.125C469.904+462.125+465.212+457.269+465.212+451.317L465.212+445.991C465.137+440.038+469.828+435.183+475.58+435.183Z" opacity="1" fill="#444343"/>
<g opacity="1">
<path d="M623.295+448.654C623.295+442.555+618.518+437.61+612.625+437.61C606.732+437.61+601.955+442.555+601.955+448.654C601.955+454.753+606.732+459.697+612.625+459.697C618.518+459.697+623.295+454.753+623.295+448.654Z" opacity="1" fill="#6b6868"/>
<path d="M596.809+448.654C596.809+442.555+592.032+437.61+586.139+437.61C580.246+437.61+575.469+442.555+575.469+448.654C575.469+454.753+580.246+459.697+586.139+459.697C592.032+459.697+596.809+454.753+596.809+448.654Z" opacity="1" fill="#6b6868"/>
<path d="M570.096+448.654C570.096+442.555+565.319+437.61+559.426+437.61C553.533+437.61+548.756+442.555+548.756+448.654C548.756+454.753+553.533+459.697+559.426+459.697C565.319+459.697+570.096+454.753+570.096+448.654Z" opacity="1" fill="#6b6868"/>
<g opacity="1">
<path d="M543.61+448.654C543.61+442.555+538.833+437.61+532.94+437.61C527.047+437.61+522.27+442.555+522.27+448.654C522.27+454.753+527.047+459.697+532.94+459.697C538.833+459.697+543.61+454.753+543.61+448.654Z" opacity="1" fill="#6b6868"/>
<path d="M517.124+448.654C517.124+442.555+512.347+437.61+506.454+437.61C500.562+437.61+495.784+442.555+495.784+448.654C495.784+454.753+500.562+459.697+506.454+459.697C512.347+459.697+517.124+454.753+517.124+448.654Z" opacity="1" fill="#6b6868"/>
<path d="M490.487+448.654C490.487+442.555+485.71+437.61+479.817+437.61C473.924+437.61+469.147+442.555+469.147+448.654C469.147+454.753+473.924+459.697+479.817+459.697C485.71+459.697+490.487+454.753+490.487+448.654Z" opacity="1" fill="#6b6868"/>
</g>
<path d="M618.225+448.654C618.225+445.453+615.717+442.858+612.625+442.858C609.532+442.858+607.025+445.453+607.025+448.654C607.025+451.855+609.532+454.45+612.625+454.45C615.717+454.45+618.225+451.855+618.225+448.654Z" opacity="1" fill="#544f4f"/>
<path d="M591.739+448.654C591.739+445.453+589.232+442.858+586.139+442.858C583.046+442.858+580.539+445.453+580.539+448.654C580.539+451.855+583.046+454.45+586.139+454.45C589.232+454.45+591.739+451.855+591.739+448.654Z" opacity="1" fill="#544f4f"/>
<path d="M565.026+448.654C565.026+445.453+562.519+442.858+559.426+442.858C556.333+442.858+553.826+445.453+553.826+448.654C553.826+451.855+556.333+454.45+559.426+454.45C562.519+454.45+565.026+451.855+565.026+448.654Z" opacity="1" fill="#544f4f"/>
<path d="M538.54+448.654C538.54+445.453+536.033+442.858+532.94+442.858C529.847+442.858+527.34+445.453+527.34+448.654C527.34+451.855+529.847+454.45+532.94+454.45C536.033+454.45+538.54+451.855+538.54+448.654Z" opacity="1" fill="#544f4f"/>
<path d="M512.054+448.654C512.054+445.453+509.547+442.858+506.454+442.858C503.362+442.858+500.855+445.453+500.855+448.654C500.855+451.855+503.362+454.45+506.454+454.45C509.547+454.45+512.054+451.855+512.054+448.654Z" opacity="1" fill="#544f4f"/>
<path d="M485.417+448.654C485.417+445.453+482.91+442.858+479.817+442.858C476.725+442.858+474.217+445.453+474.217+448.654C474.217+451.855+476.725+454.45+479.817+454.45C482.91+454.45+485.417+451.855+485.417+448.654Z" opacity="1" fill="#544f4f"/>
</g>
</g>
<path d="M618.3+369.314L636.992+369.314C642.743+369.314+643.5+370.567+643.5+374.483L643.5+384.587C643.5+390.539+638.808+395.395+633.057+395.395L618.3+395.395C612.549+395.395+607.857+390.539+607.857+384.587L607.857+380.122C607.857+374.17+612.549+369.314+618.3+369.314Z" opacity="1" fill="#cc8d00"/>
<path d="M506.606+388.155L630.03+388.155C636.916+388.155+642.516+393.95+642.516+401.078L642.516+412.121C642.516+419.248+636.916+425.044+630.03+425.044L506.53+425.044C499.644+425.044+494.044+419.248+494.044+412.121L494.044+400.999C494.12+393.872+499.719+388.155+506.606+388.155Z" opacity="1" fill="#eaa803"/>
<path d="M515.535+369.314L528.702+369.314C540.508+369.314+550.118+379.261+550.118+391.479L550.118+400.721C550.118+412.939+540.508+422.886+528.702+422.886L515.535+422.886C503.73+422.886+494.12+412.939+494.12+400.721L494.12+391.479C494.12+379.261+503.73+369.314+515.535+369.314Z" opacity="1" fill="#eaa803"/>
<path d="M270.248+336.634C270.248+344.123+262.73+350.198+253.463+350.198C244.197+350.198+236.679+344.123+236.679+336.634C236.679+329.146+244.197+323.07+253.463+323.07C262.73+323.07+270.248+329.146+270.248+336.634" opacity="1" fill="#d84315"/>
<path d="M337.384+336.634C337.384+344.123+329.866+350.198+320.6+350.198C311.334+350.198+303.816+344.123+303.816+336.634C303.816+329.146+311.334+323.07+320.6+323.07C329.866+323.07+337.384+329.146+337.384+336.634" opacity="1" fill="#d84315"/>
<path d="M169.543+336.634C169.543+344.123+177.061+350.198+186.327+350.198C195.593+350.198+203.111+344.123+203.111+336.634C203.111+329.146+195.593+323.07+186.327+323.07C177.061+323.07+169.543+329.146+169.543+336.634" opacity="1" fill="#d84315"/>
<path d="M342.979+277.856L163.948+277.856C157.764+277.856+152.759+281.901+152.759+286.899L152.759+300.463L354.168+300.463L354.168+286.899C354.168+281.901+349.163+277.856+342.979+277.856" opacity="1" fill="#ff5722"/>
<path d="M236.679+300.463L270.248+300.463L270.248+336.634L236.679+336.634L236.679+300.463Z" opacity="1" fill="#ff5722"/>
<path d="M326.194+300.463L298.221+300.463L303.816+336.634L337.384+336.634L326.194+300.463Z" opacity="1" fill="#ff5722"/>
<path d="M180.733+300.463L208.706+300.463L203.111+336.634L169.543+336.634L180.733+300.463Z" opacity="1" fill="#ff5722"/>
<path d="M303.816+336.634C303.816+344.123+296.298+350.198+287.032+350.198C277.765+350.198+270.248+344.123+270.248+336.634C270.248+329.146+277.765+323.07+287.032+323.07C296.298+323.07+303.816+329.146+303.816+336.634" opacity="1" fill="#ffa000"/>
<path d="M370.952+336.634C370.952+344.123+363.434+350.198+354.168+350.198C344.902+350.198+337.384+344.123+337.384+336.634C337.384+329.146+344.902+323.07+354.168+323.07L370.952+336.634Z" opacity="1" fill="#ffa000"/>
<path d="M203.111+336.634C203.111+344.123+210.629+350.198+219.895+350.198C229.162+350.198+236.679+344.123+236.679+336.634C236.679+329.146+229.162+323.07+219.895+323.07C210.629+323.07+203.111+329.146+203.111+336.634" opacity="1" fill="#ffa000"/>
<path d="M135.975+336.634C135.975+344.123+143.493+350.198+152.759+350.198C162.025+350.198+169.543+344.123+169.543+336.634C169.543+329.146+162.025+323.07+152.759+323.07L135.975+336.634Z" opacity="1" fill="#ffa000"/>
<path d="M298.221+300.463L270.248+300.463L270.248+336.634L303.816+336.634L298.221+300.463Z" opacity="1" fill="#ffc107"/>
<path d="M354.168+300.463L326.194+300.463L337.384+336.634L370.952+336.634L354.168+300.463Z" opacity="1" fill="#ffc107"/>
<path d="M208.706+300.463L236.679+300.463L236.679+336.634L203.111+336.634L208.706+300.463Z" opacity="1" fill="#ffc107"/>
<path d="M152.759+300.463L180.733+300.463L169.543+336.634L135.975+336.634L152.759+300.463Z" opacity="1" fill="#ffc107"/>
<path d="M188.041+221.12L324.579+221.12L324.579+286.998L188.041+286.998L188.041+221.12Z" opacity="1" fill="#689f38"/>
<path d="M194.542+227.109L318.077+227.109L318.077+281.009L194.542+281.009L194.542+227.109Z" opacity="1" fill="#8bc34a"/>
<g opacity="1">
<path d="M260.831+206.098C262.651+205.967+264.259+207.31+264.429+209.105L264.294+225.171L260.921+224.546L257.847+209.581C257.712+207.783+259.045+206.227+260.831+206.098Z" opacity="1" fill="#d1d3d3"/>
<path d="M262.735+209.088C262.658+208.269+261.921+207.653+261.089+207.713C260.258+207.773+259.647+208.486+259.724+209.306C259.802+210.126+260.539+210.741+261.37+210.681C262.202+210.621+262.813+209.908+262.735+209.088Z" opacity="1" fill="#fcfcfc"/>
<path d="M261.344+211.517C264.32+211.302+266.961+213.509+267.239+216.443C267.517+219.377+265.327+221.933+262.351+222.148C259.374+222.364+256.733+220.157+256.455+217.223C256.177+214.289+258.368+211.732+261.344+211.517Z" opacity="1" fill="#efefef"/>
<path d="M261.53+213.485C263.421+213.348+265.067+214.723+265.244+216.587C265.42+218.451+264.055+220.044+262.164+220.181C260.274+220.318+258.627+218.942+258.451+217.078C258.274+215.215+259.674+213.619+261.53+213.485Z" opacity="1" fill="#bcc1c1"/>
<path d="M261.477+224.088L264.294+225.171C264.294+225.171+258.021+228.543+261.174+231.686C264.33+234.864+268.474+229.108+268.474+229.108C268.87+229.566+269.092+230.419+269.01+231.05C268.69+232.881+267.567+234.422+265.993+235.3C262.34+237.302+257.907+235.537+256.766+232.422C254.488+226.227+261.477+224.088+261.477+224.088Z" opacity="1" fill="#d1d3d3"/>
<path d="M256.82+229.638C256.835+227.934+257.911+226.64+259.955+225.519C259.955+225.519+256.265+229.365+259.248+234.432C259.248+234.432+256.758+233.083+256.82+229.638Z" opacity="1" fill="#ffffff"/>
</g>
<path d="M267.829+229.982C267.637+232.145+265.81+233.77+263.749+233.611C261.688+233.452+260.173+231.571+260.365+229.408C260.557+227.245+262.384+225.62+264.445+225.779C266.507+225.938+268.021+227.82+267.829+229.982Z" opacity="1" fill="#525357"/>
<g opacity="1">
<path d="M214.646+244.147L220.538+244.147L220.538+264.441L216.721+264.441L216.721+250.714C216.721+250.32+216.725+249.767+216.734+249.055C216.743+248.344+216.747+247.796+216.747+247.41L213.036+264.441L209.059+264.441L205.374+247.41C205.374+247.796+205.379+248.344+205.387+249.055C205.396+249.767+205.401+250.32+205.401+250.714L205.401+264.441L201.583+264.441L201.583+244.147L207.542+244.147L211.107+260.104L214.646+244.147Z" opacity="1" fill="#ffffff"/>
<path d="M224.733+267.318L225.212+267.346C225.585+267.364+225.939+267.35+226.276+267.304C226.613+267.258+226.897+267.153+227.128+266.988C227.349+266.832+227.556+266.506+227.746+266.01C227.937+265.514+228.014+265.212+227.979+265.101L222.658+249.434L226.875+249.434L230.041+260.503L233.034+249.434L237.064+249.434L232.089+264.193C231.132+267.038+230.373+268.803+229.815+269.486C229.256+270.17+228.139+270.512+226.463+270.512C226.126+270.512+225.855+270.51+225.651+270.505C225.447+270.501+225.141+270.485+224.733+270.457L224.733+267.318Z" opacity="1" fill="#ffffff"/>
<path d="M250.32+259.649C250.4+260.347+250.573+260.843+250.839+261.136C251.309+261.66+252.178+261.921+253.446+261.921C254.191+261.921+254.783+261.806+255.222+261.577C255.661+261.347+255.88+261.003+255.88+260.544C255.88+260.104+255.703+259.769+255.348+259.539C254.994+259.31+253.677+258.915+251.398+258.355C249.757+257.933+248.6+257.405+247.926+256.772C247.252+256.148+246.915+255.248+246.915+254.074C246.915+252.688+247.44+251.497+248.491+250.501C249.542+249.505+251.021+249.007+252.927+249.007C254.737+249.007+256.211+249.381+257.35+250.129C258.49+250.877+259.144+252.169+259.312+254.005L255.521+254.005C255.468+253.5+255.331+253.101+255.109+252.807C254.692+252.275+253.983+252.009+252.981+252.009C252.156+252.009+251.568+252.142+251.218+252.408C250.868+252.674+250.693+252.986+250.693+253.344C250.693+253.794+250.879+254.12+251.251+254.321C251.624+254.533+252.941+254.895+255.202+255.409C256.71+255.776+257.84+256.332+258.594+257.075C259.339+257.828+259.711+258.768+259.711+259.897C259.711+261.384+259.177+262.598+258.109+263.539C257.04+264.48+255.388+264.95+253.154+264.95C250.874+264.95+249.192+264.452+248.105+263.456C247.019+262.46+246.476+261.191+246.476+259.649L250.32+259.649Z" opacity="1" fill="#ffffff"/>
<path d="M261.14+252.366L261.14+249.572L263.161+249.572L263.161+245.386L266.913+245.386L266.913+249.572L269.267+249.572L269.267+252.366L266.913+252.366L266.913+260.297C266.913+260.912+266.988+261.295+267.139+261.446C267.29+261.598+267.751+261.673+268.522+261.673C268.637+261.673+268.759+261.671+268.888+261.666C269.017+261.662+269.143+261.655+269.267+261.646L269.267+264.578L267.471+264.647C265.68+264.711+264.456+264.39+263.8+263.683C263.374+263.234+263.161+262.541+263.161+261.604L263.161+252.366L261.14+252.366Z" opacity="1" fill="#ffffff"/>
<path d="M281.762+256.965C281.762+255.46+281.465+254.301+280.871+253.489C280.277+252.676+279.426+252.27+278.317+252.27C277.209+252.27+276.355+252.676+275.757+253.489C275.158+254.301+274.859+255.46+274.859+256.965C274.859+258.47+275.158+259.631+275.757+260.448C276.355+261.265+277.209+261.673+278.317+261.673C279.426+261.673+280.277+261.265+280.871+260.448C281.465+259.631+281.762+258.47+281.762+256.965ZM278.331+264.964C275.839+264.964+273.981+264.181+272.757+262.616C271.533+261.051+270.921+259.168+270.921+256.965C270.921+254.799+271.533+252.922+272.757+251.334C273.981+249.746+275.839+248.952+278.331+248.952C280.822+248.952+282.68+249.746+283.904+251.334C285.128+252.922+285.74+254.799+285.74+256.965C285.74+259.168+285.128+261.051+283.904+262.616C282.68+264.181+280.822+264.964+278.331+264.964Z" opacity="1" fill="#ffffff"/>
<path d="M296.945+249.104L296.945+253.124C296.705+253.096+296.493+253.078+296.306+253.069C296.12+253.059+295.969+253.055+295.854+253.055C294.329+253.055+293.304+253.569+292.781+254.597C292.489+255.175+292.342+256.065+292.342+257.268L292.342+264.441L288.525+264.441L288.525+249.434L292.143+249.434L292.143+252.05C292.728+251.049+293.238+250.366+293.672+249.998C294.382+249.384+295.304+249.076+296.439+249.076C296.51+249.076+296.57+249.078+296.619+249.083C296.668+249.088+296.776+249.094+296.945+249.104Z" opacity="1" fill="#ffffff"/>
<path d="M302.044+255.437L307.937+255.437C307.875+254.399+307.571+253.612+307.026+253.075C306.48+252.539+305.804+252.27+304.997+252.27C304.119+252.27+303.439+252.555+302.955+253.124C302.472+253.693+302.168+254.464+302.044+255.437ZM310.651+251.953C311.218+252.844+311.586+253.876+311.755+255.051C311.852+255.74+311.892+256.731+311.874+258.025L301.951+258.025C302.004+259.53+302.461+260.586+303.321+261.191C303.844+261.568+304.474+261.756+305.21+261.756C305.99+261.756+306.625+261.526+307.112+261.068C307.378+260.82+307.613+260.476+307.817+260.035L311.688+260.035C311.591+260.925+311.143+261.829+310.345+262.747C309.103+264.207+307.365+264.936+305.13+264.936C303.286+264.936+301.658+264.321+300.248+263.091C298.838+261.861+298.133+259.861+298.133+257.089C298.133+254.491+298.77+252.5+300.042+251.114C301.315+249.728+302.966+249.035+304.997+249.035C306.203+249.035+307.29+249.269+308.256+249.737C309.223+250.205+310.021+250.944+310.651+251.953Z" opacity="1" fill="#ffffff"/>
</g>
<path d="M246.553+348.673L246.553+356.355L249.636+358.55L249.636+348.673L246.553+348.673Z" opacity="1" fill="#7986cb"/>
<path d="M377.736+419.289C383.964+419.289+387.645+424.496+387.645+430.86C387.645+430.86+387.645+431.438+387.645+432.306C387.645+434.331+387.645+437.947+387.645+440.984L387.645+442.43C387.645+444.021+386.371+445.323+384.814+445.323C384.389+445.323+383.964+445.178+383.54+445.034L381.983+465.571L372.074+465.571L369.243+430.86L362.166+430.86C369.243+419.289+370.659+419.289+377.736+419.289Z" opacity="1" fill="#2196f3"/>
<path d="M355.088+436.645L355.088+436.645L364.997+436.645L370.092+429.703C371.083+428.401+370.8+426.665+369.526+425.653C368.252+424.641+366.554+424.93+365.563+426.231L362.166+430.86L355.088+430.86C353.531+430.86+352.257+432.161+352.257+433.752C352.257+435.343+353.531+436.645+355.088+436.645Z" opacity="1" fill="#2196f3"/>
<path d="M364.997+436.645L336.687+436.645L336.687+449.662L364.997+449.662L364.997+436.645Z" opacity="1" fill="#ffffff"/>
<path d="M362.166+449.662L357.919+449.662L357.919+465.571L362.166+465.571L362.166+449.662Z" opacity="1" fill="#90a4ae"/>
<path d="M343.764+449.662L339.518+449.662L339.518+465.571L343.764+465.571L343.764+449.662Z" opacity="1" fill="#90a4ae"/>
<path d="M334.981+449.662L330.734+449.662L330.734+465.571L334.981+465.571L334.981+449.662Z" opacity="1" fill="#90a4ae"/>
<path d="M343.764+449.662L339.518+449.662L339.518+465.571L343.764+465.571L343.764+449.662Z" opacity="1" fill="#90a4ae"/>
<path d="M316.579+449.662L312.333+449.662L312.333+465.571L316.579+465.571L316.579+449.662Z" opacity="1" fill="#90a4ae"/>
<path d="M357.919+458.34L343.764+458.34L343.764+461.232L357.919+461.232L357.919+458.34Z" opacity="1" fill="#546e7a"/>
<path d="M330.734+458.34L316.579+458.34L316.579+461.232L330.734+461.232L330.734+458.34Z" opacity="1" fill="#546e7a"/>
<path d="M342.773+448.216L336.545+438.814L337.677+438.091L343.056+438.091L349.709+448.216L342.773+448.216Z" opacity="1" fill="#ff3d00"/>
<path d="M316.728+447.891L310.5+438.49L311.632+437.767L317.011+437.767L323.664+447.891L316.728+447.891Z" opacity="1" fill="#ff3d00"/>
<path d="M355.371+448.216L349.143+438.814L350.134+438.091L355.513+438.091L362.166+448.216L355.371+448.216Z" opacity="1" fill="#ff3d00"/>
<path d="M329.892+447.891L323.664+438.49L324.655+437.767L330.034+437.767L336.687+447.891L329.892+447.891Z" opacity="1" fill="#ff3d00"/>
<path d="M362.166+446.769L362.166+439.538L336.687+439.538L336.687+436.645L364.997+436.645L364.997+449.662L336.687+449.662L336.687+446.769L362.166+446.769Z" opacity="1" fill="#ff3d00"/>
<path d="M312.333+446.769L312.333+439.538L337.812+439.538L337.812+436.645L309.502+436.645L309.502+449.662L337.812+449.662L337.812+446.769L312.333+446.769Z" opacity="1" fill="#ff3d00"/>
<path d="M377.028+416.397C380.567+416.397+383.398+413.504+383.398+409.888C383.398+406.272+380.567+403.38+377.028+403.38C373.49+403.38+370.659+406.272+370.659+409.888C370.659+413.504+373.49+416.397+377.028+416.397" opacity="1" fill="#ffb74d"/>
<path d="M379.152+442.43C379.152+439.538+381.983+429.413+381.983+429.413L381.983+442.43C381.983+443.587+382.69+444.6+383.54+445.034L383.257+447.926C380.992+447.203+379.152+444.889+379.152+442.43Z" opacity="1" fill="#3f51b5"/>
<path d="M385.521+445.178C385.238+445.323+385.097+445.323+384.814+445.323C385.097+445.323+385.238+445.323+385.521+445.178Z" opacity="1" fill="#3f51b5"/>
<path d="M386.229+444.889C386.088+445.034+385.805+445.034+385.663+445.178C385.805+445.178+386.088+445.034+386.229+444.889Z" opacity="1" fill="#3f51b5"/>
<path d="M464.443+485.666C462.755+485.666+461.416+484.281+461.416+482.533C461.416+480.786+462.755+479.4+464.443+479.4C466.131+479.4+467.47+480.786+467.47+482.533C467.47+484.281+466.131+485.666+464.443+485.666" opacity="1" fill="none"/>
<path d="M568.168+354.867C568.168+354.847+568.172+354.831+568.172+354.811L568.172+354.021C568.172+350.751+564.967+348.102+561.011+348.102C557.054+348.102+553.85+350.751+553.85+354.021L553.85+354.811C553.85+354.831+553.854+354.847+553.854+354.867L551.804+354.867L551.804+356.559L570.217+356.559L570.217+354.867L568.168+354.867Z" opacity="1" fill="#ff5722"/>
<path d="M558.965+347.256L563.057+347.256L563.057+354.867L558.965+354.867L558.965+347.256Z" opacity="1" fill="#d84315"/>
</g>
</svg>
